<?xml version="1.0" encoding="UTF-8" standalone="no"?>
<svg
   fill="#000000"
   width="24px"
   height="24px"
   viewBox="0 0 1024 1024"
   version="1.1"
   id="svg10"
   sodipodi:docname="mail.svg"
   inkscape:version="1.1.1 (3bf5ae0d25, 2021-09-20)"
   xmlns:inkscape="http://www.inkscape.org/namespaces/inkscape"
   xmlns:sodipodi="http://sodipodi.sourceforge.net/DTD/sodipodi-0.dtd"
   xmlns="http://www.w3.org/2000/svg"
   xmlns:svg="http://www.w3.org/2000/svg">
  <defs
     id="defs14" />
  <sodipodi:namedview
     id="namedview12"
     pagecolor="#ffffff"
     bordercolor="#666666"
     borderopacity="1.0"
     inkscape:pageshadow="2"
     inkscape:pageopacity="0.0"
     inkscape:pagecheckerboard="0"
     showgrid="false"
     inkscape:zoom="26.166667"
     inkscape:cx="12"
     inkscape:cy="12"
     inkscape:window-width="1920"
     inkscape:window-height="1008"
     inkscape:window-x="0"
     inkscape:window-y="360"
     inkscape:window-maximized="1"
     inkscape:current-layer="svg10" />
  <path
     id="path2"
     style="stroke-width:0.0234375;fill:#a998ea;fill-opacity:1"
     d="M 12.001953 3.9121094 C 9.3394766 3.9120391 6.6761484 3.9099922 4.0136719 3.9160156 C 3.6852422 3.9167422 3.3513125 3.9303281 3.03125 3.9960938 C 2.2572734 4.1551641 1.7648125 4.6298359 1.5332031 5.3945312 C 1.4310625 5.7317969 1.5187266 5.9101094 1.8164062 6.0976562 C 5.0640937 8.1427891 8.3044141 10.195937 11.535156 12.267578 C 11.883438 12.490891 12.114953 12.489203 12.460938 12.267578 C 15.658023 10.220102 18.862453 8.1823047 22.083984 6.1738281 C 22.551094 5.8826172 22.591797 5.5859609 22.398438 5.1582031 C 21.964352 4.1977578 21.148953 3.9122969 20.175781 3.9121094 C 17.451336 3.9116172 14.726375 3.9121094 12.001953 3.9121094 z M 1.5097656 7.6621094 L 1.5097656 16.330078 C 3.8016953 14.871047 6.0243672 13.456461 8.3183594 11.996094 C 6.0173594 10.531508 3.7843984 9.1098203 1.5097656 7.6621094 z M 22.492188 7.6679688 C 20.194445 9.1311016 17.976461 10.543484 15.695312 11.996094 C 17.970789 13.444461 20.197352 14.861594 22.492188 16.322266 L 22.492188 7.6679688 z M 13.894531 13.125 C 13.405625 13.4685 12.874836 13.752328 12.382812 14.091797 C 12.100953 14.286281 11.88257 14.275961 11.605469 14.083984 C 11.113914 13.743578 10.611461 13.411242 10.082031 13.136719 C 9.897625 13.041117 9.5650391 13.034711 9.3945312 13.140625 C 6.8532969 14.71907 4.3306953 16.328711 1.7949219 17.916016 C 1.4905859 18.106422 1.4407031 18.298195 1.5410156 18.626953 C 1.8193359 19.538086 2.5604453 20.058602 3.6777344 20.060547 C 6.4432891 20.065258 9.2090313 20.0625 11.974609 20.0625 C 14.740187 20.0625 17.505883 20.066953 20.271484 20.0625 C 21.380266 20.060578 22.15 19.583969 22.439453 18.748047 C 22.568078 18.376727 22.530805 18.111844 22.144531 17.871094 C 19.640469 16.310648 17.149375 14.728766 14.664062 13.138672 C 14.381523 12.957898 14.179508 12.924867 13.894531 13.125 z "
     transform="scale(42.666667)" />
</svg>
