<?xml version="1.0" encoding="UTF-8" standalone="no"?>
<svg
   fill="#000000"
   width="24px"
   height="24px"
   viewBox="0 0 1024 1024"
   version="1.1"
   id="svg4"
   sodipodi:docname="discord2.svg"
   inkscape:version="1.1.1 (3bf5ae0d25, 2021-09-20)"
   xmlns:inkscape="http://www.inkscape.org/namespaces/inkscape"
   xmlns:sodipodi="http://sodipodi.sourceforge.net/DTD/sodipodi-0.dtd"
   xmlns="http://www.w3.org/2000/svg"
   xmlns:svg="http://www.w3.org/2000/svg">
  <defs
     id="defs8" />
  <sodipodi:namedview
     id="namedview6"
     pagecolor="#ffffff"
     bordercolor="#666666"
     borderopacity="1.0"
     inkscape:pageshadow="2"
     inkscape:pageopacity="0.0"
     inkscape:pagecheckerboard="0"
     showgrid="false"
     inkscape:zoom="13.083333"
     inkscape:cx="20.407644"
     inkscape:cy="14.292994"
     inkscape:window-width="1920"
     inkscape:window-height="1008"
     inkscape:window-x="0"
     inkscape:window-y="360"
     inkscape:window-maximized="1"
     inkscape:current-layer="svg4" />
  <path
     id="path2"
     style="fill-opacity:1;fill-rule:nonzero;stroke-width:12.4976"
     d="m 384.90759,173.88108 c -63.37557,10.91509 -124.03946,30.03433 -180.63006,56.01926 -0.4899,0.2111 -0.89295,0.5677 -1.17165,1.0251 -115.035207,171.8586 -146.562447,339.4712 -131.103247,505.0272 0.07,0.8098 0.54209,1.5824 1.17166,2.0748 75.896947,55.7365 149.410807,89.5859 221.564727,112.014 1.15478,0.3524 2.36514,-0.074 3.1,-1.0252 17.06804,-23.3079 32.28333,-47.871 45.32838,-73.7159 0.76985,-1.5134 0.0362,-3.3068 -1.53779,-3.9055 -24.13297,-9.1544 -47.09626,-20.3262 -69.20084,-33.0013 -1.74843,-1.021 -1.90136,-3.5137 -0.29295,-4.7109 4.65163,-3.4856 9.30086,-7.1271 13.74253,-10.7889 0.80359,-0.6686 1.9355,-0.813 2.88032,-0.3906 145.21766,66.3007 302.4323,66.3007 445.93653,0 0.94483,-0.4574 2.06613,-0.3024 2.90474,0.3662 4.44291,3.6618 9.08032,7.3277 13.76694,10.8133 1.60845,1.1973 1.50432,3.6899 -0.24408,4.711 -22.10458,12.9212 -45.08169,23.833 -69.24964,32.9524 -1.57348,0.5987 -2.25886,2.4409 -1.489,3.9543 13.32499,25.8087 28.52648,50.3824 45.27958,73.6916 0.69986,0.986 1.96961,1.402 3.12439,1.0495 72.50385,-22.4281 146.00949,-56.2775 221.90645,-112.014 0.66489,-0.4924 1.07731,-1.2161 1.14729,-2.026 18.50153,-191.4009 -30.97157,-357.6632 -131.17647,-505.0516 -0.24493,-0.4924 -0.65735,-0.8383 -1.14728,-1.0495 -56.55558,-25.94993 -117.21948,-45.06917 -180.63003,-56.01925 -1.15479,-0.21134 -2.30986,0.31062 -2.90474,1.36691 -7.79979,13.87239 -16.43102,31.95759 -22.48112,46.18224 -68.20215,-10.21043 -136.0634,-10.21043 -202.86707,0 -6.05136,-14.54082 -14.98808,-32.30985 -22.82286,-46.18224 -0.59488,-1.02104 -1.74994,-1.543 -2.90472,-1.36691 z m -20.04018,282.41496 c 44.76784,0 80.44561,40.4938 79.74574,89.4354 0,49.294 -35.32784,89.4355 -79.74574,89.4355 -43.72052,0 -79.74572,-40.1415 -79.74572,-89.4355 0,-49.294 35.32659,-89.4354 79.74572,-89.4354 z m 294.84194,0 c 44.76909,0 80.44436,40.4938 79.74573,89.4354 0,49.294 -34.97664,89.4355 -79.74573,89.4355 -43.71926,0 -79.7457,-40.1415 -79.7457,-89.4355 0,-49.294 35.32655,-89.4354 79.7457,-89.4354 z" />
</svg>
