<?xml version="1.0" encoding="UTF-8" standalone="no"?>
<svg
   fill="#000000"
   width="24px"
   height="24px"
   viewBox="0 0 1024 1024"
   version="1.1"
   id="svg4"
   sodipodi:docname="github.svg"
   inkscape:version="1.1.1 (3bf5ae0d25, 2021-09-20)"
   xmlns:inkscape="http://www.inkscape.org/namespaces/inkscape"
   xmlns:sodipodi="http://sodipodi.sourceforge.net/DTD/sodipodi-0.dtd"
   xmlns="http://www.w3.org/2000/svg"
   xmlns:svg="http://www.w3.org/2000/svg">
  <defs
     id="defs8" />
  <sodipodi:namedview
     id="namedview6"
     pagecolor="#ffffff"
     bordercolor="#666666"
     borderopacity="1.0"
     inkscape:pageshadow="2"
     inkscape:pageopacity="0.0"
     inkscape:pagecheckerboard="0"
     showgrid="false"
     inkscape:zoom="18.502627"
     inkscape:cx="15.619403"
     inkscape:cy="12.484713"
     inkscape:window-width="1920"
     inkscape:window-height="1008"
     inkscape:window-x="0"
     inkscape:window-y="360"
     inkscape:window-maximized="1"
     inkscape:current-layer="svg4" />
  <path
     id="rect847"
     style="fill-opacity:1;stroke-width:4209.89;paint-order:stroke fill markers"
     d="M 690.85504,985.52478 V 832.00171 c -5e-5,-48.65041 -19.9928,-92.5908 -52.06868,-124.30892 192.33607,-33.86451 272.86361,-151.03887 272.86361,-290.5511 0,-67.72901 -22.53656,-130.35051 -66.77507,-180.55104 26.11385,-81.44144 -3.617,-150.48211 -7.55192,-160.975328 -73.6911,-6.677511 -150.0651,48.233068 -165.44717,59.918698 -45.31166,-12.28183 -96.98285,-18.97921 -154.81485,-18.97921 -57.47429,0 -108.84735,6.41914 -153.92053,18.58174 -6.43902,-5.00812 -88.73533,-68.961154 -168.03072,-61.806685 -4.05421,10.493218 -34.44084,81.123765 -6.65763,163.757925 -43.64229,50.08131 -65.98015,112.16621 -65.98015,179.65676 0,139.27373 80.03072,256.40835 271.77059,290.74981 -22.89432,22.2981 -39.54834,50.89609 -47.29902,82.97198 -35.65311,8.94308 -105.88618,17.92596 -141.89703,-35.3749 -49.72359,-73.57178 -92.63055,-100.79856 -134.841933,-79.09664 -17.647699,20.39023 41.615183,31.40016 66.775073,74.32699 12.52033,20.39027 19.91328,142.93046 205.09488,121.22859 v 105.82655 c 0,46.75427 348.78055,48.67367 348.78055,8.14785 z"
     sodipodi:nodetypes="cscscccscccscccccccc" />
</svg>
