<?xml version="1.0" encoding="UTF-8" standalone="no"?>
<svg
   fill="#000000"
   width="24px"
   height="24px"
   viewBox="0 0 1024 1024"
   version="1.1"
   id="svg4"
   sodipodi:docname="website.svg"
   inkscape:version="1.1.1 (3bf5ae0d25, 2021-09-20)"
   xmlns:inkscape="http://www.inkscape.org/namespaces/inkscape"
   xmlns:sodipodi="http://sodipodi.sourceforge.net/DTD/sodipodi-0.dtd"
   xmlns="http://www.w3.org/2000/svg"
   xmlns:svg="http://www.w3.org/2000/svg">
  <path
     id="path903"
     style="stroke-width:24.6486;fill-opacity:1"
     d="m 511.99998,68.291659 c -245.03134,0 -443.666655,198.635301 -443.666655,443.666681 0,245.03137 198.635315,443.75 443.666655,443.75 245.03143,0 443.6667,-198.71863 443.6667,-443.75 0,-245.03138 -198.63527,-443.666681 -443.6667,-443.666681 z M 487.33333,119.62499 V 265.54166 H 319.74999 c 40.32505,-80.4529 99.87373,-135.16988 167.58334,-145.91667 z m 49.33332,0 c 67.70961,10.74679 127.23367,65.46377 167.58336,145.91667 H 536.66665 Z m -205.99999,42.41668 c -24.99364,29.18392 -46.91031,63.96369 -64.58333,103.49999 h -61.66667 c 34.2615,-42.71594 77.22401,-78.03801 126.25,-103.49999 z m 362.66666,0 c 49.026,25.43732 91.98856,60.78405 126.25003,103.49999 h -61.66669 c -17.673,-39.5363 -39.61434,-74.31607 -64.58334,-103.49999 z m -522.49999,152.75 h 76.49999 C 229.95609,367.26847 219.351,425.63033 217.08333,487.375 h -98.16667 c 3.89447,-62.60735 22.1905,-121.2404 51.91667,-172.58333 z m 127.91666,0 H 487.33333 V 487.375 h -221 c 2.41555,-62.60735 13.83164,-121.2404 32.41666,-172.58333 z m 237.91666,0 H 725.24999 C 743.83504,366.1346 755.33447,424.76765 757.75,487.375 H 536.66665 Z m 240,0 h 76.50001 c 29.75083,51.34293 48.13018,109.97598 52,172.58333 H 807.00001 C 804.70766,425.63033 794.06851,367.26847 776.66665,314.79167 Z M 118.91666,536.62501 h 98.16667 c 2.26767,61.76931 12.82345,120.10655 30.24999,172.58333 H 170.83333 C 141.08251,657.86542 122.81113,599.25702 118.91666,536.62501 Z m 147.41667,0 h 221 V 709.20834 H 298.74999 C 280.16497,657.86542 268.74888,599.25702 266.33333,536.62501 Z m 270.33332,0 H 757.75 c -2.44019,62.63201 -13.91496,121.24041 -32.50001,172.58333 H 536.66665 Z m 270.33336,0 h 98.16665 c -3.86982,62.63201 -22.24917,121.24041 -52,172.58333 h -76.50001 c 17.40186,-52.47678 28.04101,-110.81402 30.33336,-172.58333 z M 204.41666,758.45834 h 61.75 c 17.64838,39.53628 39.50636,74.34078 64.5,103.5 -49.02599,-25.43732 -91.9885,-60.78406 -126.25,-103.5 z m 115.33333,0 H 487.33333 V 904.37501 C 419.62372,893.60354 360.07504,838.91126 319.74999,758.45834 Z m 216.91666,0 h 167.58336 c -40.34969,80.45292 -99.87375,135.1452 -167.58336,145.91667 z m 221.25001,0 h 61.66669 c -34.26147,42.71594 -77.22403,78.06268 -126.25003,103.5 24.99366,-29.18388 46.91034,-63.96372 64.58334,-103.5 z" />
  <defs
     id="defs8" />
  <sodipodi:namedview
     id="namedview6"
     pagecolor="#ffffff"
     bordercolor="#666666"
     borderopacity="1.0"
     inkscape:pageshadow="2"
     inkscape:pageopacity="0.0"
     inkscape:pagecheckerboard="0"
     showgrid="false"
     inkscape:zoom="13.083333"
     inkscape:cx="15.66879"
     inkscape:cy="9.1337582"
     inkscape:window-width="2560"
     inkscape:window-height="1415"
     inkscape:window-x="1920"
     inkscape:window-y="0"
     inkscape:window-maximized="1"
     inkscape:current-layer="svg4" />
</svg>
