<?xml version="1.0" encoding="UTF-8" standalone="no"?>
<svg
   fill="#000000"
   width="24px"
   height="24px"
   viewBox="0 0 1024 1024"
   version="1.1"
   id="svg4"
   sodipodi:docname="tip.svg"
   inkscape:version="1.1.1 (3bf5ae0d25, 2021-09-20)"
   xmlns:inkscape="http://www.inkscape.org/namespaces/inkscape"
   xmlns:sodipodi="http://sodipodi.sourceforge.net/DTD/sodipodi-0.dtd"
   xmlns="http://www.w3.org/2000/svg"
   xmlns:svg="http://www.w3.org/2000/svg">
  <defs
     id="defs8" />
  <sodipodi:namedview
     id="namedview6"
     pagecolor="#ffffff"
     bordercolor="#666666"
     borderopacity="1.0"
     inkscape:pageshadow="2"
     inkscape:pageopacity="0.0"
     inkscape:pagecheckerboard="0"
     showgrid="false"
     inkscape:zoom="13.083333"
     inkscape:cx="17.503185"
     inkscape:cy="9.0191085"
     inkscape:window-width="1920"
     inkscape:window-height="1008"
     inkscape:window-x="0"
     inkscape:window-y="360"
     inkscape:window-maximized="1"
     inkscape:current-layer="svg4" />
  <path
     id="path2645"
     style="font-size:1069.34px;-inkscape-font-specification:'Asap Bold';fill-opacity:1;stroke-width:29.9952"
     d="m 522.1916,3.8861871 c -20.79674,0 -31.22931,10.0169399 -31.22931,30.0137889 v 44.319429 c -72.78854,8.798613 -130.71848,34.786545 -173.91167,77.979745 -43.1932,43.1932 -64.79613,98.40068 -64.79613,165.5901 -1e-5,59.19067 21.60293,110.42874 64.79613,153.622 43.99307,42.39331 96.38456,75.58224 157.17504,99.57845 8.79857,3.19946 14.33703,5.18416 16.73663,5.98407 v 196.72589 c -23.19636,-0.79991 -47.52173,-4.76925 -73.11771,-11.96812 -25.59596,-7.19887 -50.01485,-17.21584 -73.2112,-30.01378 -15.99748,-8.79867 -27.58347,-13.18364 -34.78233,-13.18364 -7.99874,0 -18.01567,6.4632 -30.0138,19.26119 -11.9981,12.79798 -22.43068,27.52207 -31.22929,44.31941 -8.79861,16.79735 -13.18363,31.1993 -13.18363,43.19743 0,8.79858 4.38502,18.39987 13.18363,28.79825 9.59849,10.39839 22.84703,20.41532 39.64438,30.01379 51.19194,27.19572 118.72318,42.42893 202.70995,45.62843 v 58.7186 c 0,19.99688 10.43257,30.01378 31.22931,30.01378 h 5.98407 c 20.7967,0 31.22927,-10.0169 31.22927,-30.01378 v -61.1496 c 76.7879,-7.19888 133.98008,-32.35551 171.57418,-75.54873 38.39395,-43.99306 57.59655,-103.58558 57.59655,-178.77372 0,-107.98299 -74.41008,-193.97907 -223.18668,-257.96899 l -5.98405,-2.43101 V 236.60992 c 28.79547,2.39964 55.19905,7.20028 79.19526,14.39915 27.99563,8.79862 43.9666,13.18362 47.96596,13.18362 8.79862,0 18.39992,-5.95406 28.7983,-17.95218 10.39837,-12.79798 19.16837,-27.61557 26.36724,-44.41291 7.19887,-16.79736 10.84612,-30.78367 10.84612,-41.98191 0,-13.59786 -10.01697,-27.16854 -30.01377,-40.7664 C 705.7666,107.88107 683.01033,98.279755 654.21486,90.281013 626.21927,82.282282 594.59943,77.481629 559.40494,75.881884 V 33.899976 c 0,-19.996849 -10.43257,-30.0137889 -31.22927,-30.0137889 z M 490.96229,236.60992 v 147.63793 c -19.99684,-11.19824 -35.13656,-22.87773 -45.53494,-34.87584 -10.39837,-12.79798 -15.61466,-27.52207 -15.61466,-44.31942 0,-17.59724 5.21629,-32.41482 15.61466,-44.41293 11.19823,-11.99811 26.33795,-20.03035 45.53494,-24.02974 z m 68.44265,375.59311 c 17.59724,9.59852 30.75226,20.76885 39.55088,33.56683 9.59847,11.99812 14.39913,26.81571 14.39918,44.41295 0,41.59341 -17.95572,67.99699 -53.95006,79.19523 z" />
</svg>
