<?xml version="1.0" encoding="UTF-8" standalone="no"?>
<svg
   fill="#000000"
   width="24px"
   height="24px"
   viewBox="0 0 1024 1024"
   version="1.1"
   id="svg4"
   sodipodi:docname="youtube.svg"
   inkscape:version="1.1.1 (3bf5ae0d25, 2021-09-20)"
   xmlns:inkscape="http://www.inkscape.org/namespaces/inkscape"
   xmlns:sodipodi="http://sodipodi.sourceforge.net/DTD/sodipodi-0.dtd"
   xmlns="http://www.w3.org/2000/svg"
   xmlns:svg="http://www.w3.org/2000/svg">
  <defs
     id="defs8" />
  <sodipodi:namedview
     id="namedview6"
     pagecolor="#ffffff"
     bordercolor="#666666"
     borderopacity="1.0"
     inkscape:pageshadow="2"
     inkscape:pageopacity="0.0"
     inkscape:pagecheckerboard="0"
     showgrid="false"
     inkscape:zoom="4.6256569"
     inkscape:cx="15.132986"
     inkscape:cy="-3.6751537"
     inkscape:window-width="1920"
     inkscape:window-height="1008"
     inkscape:window-x="0"
     inkscape:window-y="360"
     inkscape:window-maximized="1"
     inkscape:current-layer="svg4" />
  <path
     id="path12"
     style="fill-opacity:1;fill-rule:nonzero;stroke:none;stroke-width:0.504066"
     d="m 512.0037,199.4778 c 0,0 -277.4243,0.01 -346.6093,18.6662 -38.1694,10.2678 -68.2291,40.5201 -78.4305,78.94 -18.5382,69.6332 -18.5407,214.9197 -18.5407,214.9197 0,0 0,145.2839 18.5407,214.9196 10.2014,38.4195 40.2611,68.6677 78.4305,78.94 69.185,18.6564 346.6093,18.6589 346.6093,18.6589 0,0 277.4189,0 346.6019,-18.6589 38.1679,-10.2723 68.2357,-40.5205 78.4379,-78.94 18.5396,-69.6357 18.5333,-214.9196 18.5333,-214.9196 0,0 0.01,-145.2865 -18.5333,-214.9197 -10.2022,-38.4199 -40.27,-68.6722 -78.4379,-78.94 -69.183,-18.6605 -346.6019,-18.6662 -346.6019,-18.6662 z M 421.2718,380.0924 653.1373,512.0111 421.2718,643.9075 Z" />
</svg>
