<?xml version="1.0" standalone="no"?>
<!DOCTYPE svg PUBLIC "-//W3C//DTD SVG 20010904//EN"
 "http://www.w3.org/TR/2001/REC-SVG-20010904/DTD/svg10.dtd">
<svg version="1.0" xmlns="http://www.w3.org/2000/svg"
 width="700.000000pt" height="700.000000pt" viewBox="0 0 700.000000 700.000000"
 preserveAspectRatio="xMidYMid meet">
<metadata>
Created by potrace 1.14, written by Peter Selinger 2001-2017
</metadata>
<g transform="translate(0.000000,700.000000) scale(0.100000,-0.100000)"
fill="#000000" stroke="none">
<path d="M4918 6995 c-2 -2 -46 -6 -98 -9 -193 -14 -349 -54 -534 -140 -52
-24 -115 -58 -140 -75 -24 -17 -48 -31 -51 -31 -4 0 -26 -16 -50 -36 -31 -25
-50 -34 -64 -29 -11 3 -28 7 -38 9 -24 5 -151 41 -293 83 -195 58 -239 55
-241 -20 -2 -80 -6 -162 -8 -162 -2 0 -4 -38 -6 -85 -2 -47 -11 -139 -19 -205
-9 -66 -19 -140 -22 -165 -3 -25 -12 -87 -20 -139 -8 -51 -17 -112 -20 -135
-3 -22 -7 -52 -10 -66 -2 -14 -10 -63 -18 -110 -8 -47 -17 -98 -20 -115 -35
-211 -136 -710 -185 -915 -22 -91 -42 -176 -44 -190 -3 -14 -24 -99 -47 -190
-23 -91 -43 -172 -45 -180 -23 -111 -158 -526 -231 -707 -202 -506 -502 -941
-767 -1111 -117 -75 -316 -153 -430 -168 -15 -2 -46 -6 -69 -9 -22 -4 -104 -8
-182 -10 -109 -2 -156 -8 -208 -24 -130 -41 -233 -132 -294 -258 -42 -86 -44
-94 -51 -204 -17 -264 151 -474 427 -533 78 -17 382 -11 482 10 13 2 39 7 58
10 230 35 573 162 757 280 46 29 58 33 68 22 6 -7 58 -92 116 -188 132 -223
222 -343 381 -505 118 -121 286 -269 368 -325 19 -13 37 -27 40 -30 3 -3 34
-24 70 -45 36 -22 75 -45 85 -52 123 -75 419 -186 552 -208 20 -3 45 -8 57
-10 97 -22 381 -28 486 -9 41 7 152 35 247 62 160 46 181 55 310 132 185 110
257 165 356 271 278 295 431 709 431 1164 -1 150 -15 282 -48 452 -8 38 -47
177 -55 198 -5 11 -15 36 -22 55 -50 137 -174 368 -274 510 -160 229 -175 248
-273 348 l-90 91 41 33 c90 73 239 218 329 321 204 234 373 514 487 807 45
115 150 503 156 574 14 168 18 214 22 231 2 11 6 108 8 215 4 159 1 214 -14
300 -91 514 -344 893 -724 1083 -148 75 -249 104 -417 123 -69 7 -207 13 -212
9z m-471 -517 c-3 -8 -6 -5 -6 6 -1 11 2 17 5 13 3 -3 4 -12 1 -19z m672 -533
c30 -17 56 -41 69 -63 21 -38 51 -134 57 -180 20 -155 25 -292 13 -367 -10
-65 -15 -99 -24 -160 -10 -72 -86 -328 -123 -415 -18 -41 -45 -96 -61 -122
-17 -27 -30 -51 -30 -53 0 -3 -23 -40 -51 -82 -188 -285 -442 -491 -749 -611
-97 -38 -268 -87 -276 -80 -1 2 13 66 32 143 32 127 120 493 129 538 2 10 7
27 10 37 3 10 7 27 9 37 2 10 26 125 52 256 l49 238 27 -5 c29 -6 27 -11 42
89 6 45 29 133 70 270 3 11 8 25 43 115 87 230 256 400 422 426 20 3 37 7 39
9 2 1 48 3 103 4 90 2 104 0 148 -24z m-1450 -3132 c29 -74 35 -77 116 -62
178 33 412 -7 604 -104 70 -35 180 -124 255 -208 49 -53 176 -240 176 -257 0
-5 6 -15 14 -21 24 -20 116 -257 132 -339 44 -220 4 -450 -105 -610 -62 -93
-109 -125 -245 -172 -49 -17 -77 -19 -175 -16 -115 5 -164 15 -251 51 -137 58
-251 137 -379 264 -164 163 -296 341 -398 539 -31 59 -59 112 -63 117 -4 6
-26 54 -49 107 l-41 97 33 53 c94 148 269 475 321 602 9 22 19 36 23 32 4 -3
18 -36 32 -73z"/>
<path d="M2334 6551 c-114 -28 -186 -129 -179 -248 4 -56 75 -350 116 -475 80
-248 225 -533 323 -636 96 -103 244 -104 346 -2 50 49 70 99 70 173 0 55 -9
77 -84 197 -108 173 -173 332 -236 575 -22 83 -41 163 -44 179 -18 104 -95
214 -161 230 -50 12 -118 15 -151 7z"/>
<path d="M1930 3948 c-104 -7 -116 -9 -235 -34 -99 -21 -250 -110 -331 -196
-84 -89 -173 -232 -188 -305 -19 -87 0 -166 55 -221 48 -49 97 -73 166 -79
104 -10 181 42 247 166 92 175 146 193 561 180 73 -2 109 2 135 13 188 82 200
347 21 437 -49 24 -70 29 -181 36 -146 10 -149 10 -250 3z"/>
</g>
</svg>
