<?xml version="1.0" standalone="no"?>
<!DOCTYPE svg PUBLIC "-//W3C//DTD SVG 20010904//EN"
 "http://www.w3.org/TR/2001/REC-SVG-20010904/DTD/svg10.dtd">
<svg version="1.0" xmlns="http://www.w3.org/2000/svg"
 width="700.000000pt" height="700.000000pt" viewBox="0 0 700.000000 700.000000"
 preserveAspectRatio="xMidYMid meet">
<metadata>
Created by potrace 1.14, written by Peter Selinger 2001-2017
</metadata>
<g transform="translate(0.000000,700.000000) scale(0.100000,-0.100000)"
fill="#000000" stroke="none">
<path d="M4710 6906 c-94 -33 -159 -68 -302 -162 -345 -227 -647 -516 -1004
-957 -97 -120 -301 -423 -389 -577 -86 -152 -72 -146 -115 -54 -78 169 -243
408 -445 644 -58 67 -262 266 -332 323 -98 79 -211 137 -255 130 -47 -7 -89
-35 -151 -103 -193 -208 -398 -671 -452 -1020 -4 -25 -9 -54 -12 -65 -9 -40
-11 -312 -2 -365 18 -111 19 -120 12 -120 -3 0 -66 20 -140 45 -484 164 -804
218 -844 144 -13 -24 -1 -65 49 -164 138 -278 659 -1027 933 -1340 112 -129
206 -230 241 -259 45 -39 46 -37 -47 -55 -150 -30 -237 -77 -275 -151 l-19
-37 77 -13 c258 -41 521 -170 652 -317 71 -81 75 -89 55 -119 -22 -34 -148
-160 -205 -205 -111 -89 -313 -204 -458 -262 l-43 -17 38 -45 c20 -25 41 -45
46 -45 27 0 220 109 578 328 63 39 141 83 172 98 l56 27 53 -40 c77 -59 115
-97 152 -156 32 -51 64 -122 72 -162 25 -111 30 -195 25 -390 -1 -49 -2 -94
-2 -98 1 -5 28 6 60 23 124 67 191 167 242 365 15 61 28 111 29 113 0 1 38
-35 84 -81 46 -46 124 -117 172 -158 80 -67 117 -95 234 -181 149 -108 479
-282 671 -353 57 -21 118 -44 134 -50 46 -19 293 -87 360 -99 156 -29 217 -37
313 -42 140 -8 217 1 244 28 19 19 20 29 15 112 -22 372 -303 876 -733 1314
-61 62 -101 111 -90 107 102 -32 354 -47 511 -31 442 45 969 319 1355 706 102
101 172 186 176 214 7 50 -223 193 -501 311 -344 147 -686 231 -975 240 -47 2
-88 4 -91 4 -4 1 35 83 86 184 50 100 111 227 134 282 23 55 46 109 51 120 83
195 194 588 225 800 4 22 8 50 10 61 2 12 6 48 10 80 4 33 9 70 12 84 2 14 6
117 7 230 3 186 -2 292 -18 390 -3 19 -8 51 -10 70 -3 20 -7 47 -10 60 -3 14
-8 36 -10 50 -18 109 -76 282 -136 405 -56 113 -69 134 -124 187 -46 45 -66
47 -156 14z"/>
<path d="M6887 2077 c-43 -53 -347 -360 -437 -443 -89 -80 -201 -177 -288
-250 -13 -10 -33 -27 -45 -38 -12 -10 -38 -30 -57 -45 -19 -14 -37 -29 -40
-32 -7 -8 -263 -197 -325 -240 -27 -19 -52 -36 -55 -39 -8 -9 -207 -138 -315
-205 -344 -213 -730 -402 -1052 -517 -68 -23 -123 -46 -123 -50 0 -5 24 -9 53
-9 28 -1 79 -2 112 -3 229 -5 539 83 850 241 608 310 1290 903 1622 1410 68
103 152 263 139 263 -2 0 -20 -19 -39 -43z"/>
<path d="M1500 1249 c-141 -28 -136 -27 -265 -49 -66 -12 -131 -23 -145 -25
-14 -3 -45 -7 -70 -11 -25 -3 -56 -7 -70 -10 -14 -2 -50 -6 -80 -9 -30 -4 -66
-8 -80 -10 -22 -3 -90 -11 -180 -20 -14 -2 -36 -3 -49 -4 -29 -1 -25 -8 9 -15
166 -34 181 -36 335 -55 84 -11 460 -11 536 -1 30 4 88 11 129 15 109 10 153
19 153 30 -1 17 -108 184 -118 184 -5 0 -53 -9 -105 -20z"/>
<path d="M369 492 c52 -74 166 -157 286 -210 113 -49 311 -103 432 -117 27 -3
60 -8 73 -10 132 -25 718 -25 960 0 19 2 71 7 115 10 44 4 87 8 95 10 8 3 42
7 75 10 33 3 71 8 85 11 14 2 45 6 70 9 60 8 100 16 100 20 0 5 -37 98 -55
140 -51 118 -56 127 -72 121 -53 -21 -313 -87 -395 -101 -18 -3 -49 -10 -68
-15 -64 -16 -255 -44 -395 -57 -152 -15 -594 -7 -647 12 -7 2 -31 6 -53 9 -44
5 -56 7 -160 31 -116 27 -234 64 -348 111 -59 24 -110 44 -113 44 -3 0 4 -13
15 -28z"/>
</g>
</svg>
