<?xml version="1.0" encoding="UTF-8" standalone="no"?>
<!-- Created with Inkscape (http://www.inkscape.org/) -->

<svg
   width="769.66333mm"
   height="352.99042mm"
   viewBox="0 0 769.66333 352.99042"
   version="1.1"
   id="svg5"
   inkscape:version="1.1.1 (3bf5ae0d25, 2021-09-20)"
   sodipodi:docname="logo-full.svg"
   xmlns:inkscape="http://www.inkscape.org/namespaces/inkscape"
   xmlns:sodipodi="http://sodipodi.sourceforge.net/DTD/sodipodi-0.dtd"
   xmlns="http://www.w3.org/2000/svg"
   xmlns:svg="http://www.w3.org/2000/svg">
  <sodipodi:namedview
     id="namedview7"
     pagecolor="#ffffff"
     bordercolor="#666666"
     borderopacity="1.0"
     inkscape:pageshadow="2"
     inkscape:pageopacity="0.0"
     inkscape:pagecheckerboard="0"
     inkscape:document-units="mm"
     showgrid="false"
     inkscape:zoom="0.34296751"
     inkscape:cx="1099.2295"
     inkscape:cy="497.13164"
     inkscape:window-width="2560"
     inkscape:window-height="1415"
     inkscape:window-x="1920"
     inkscape:window-y="0"
     inkscape:window-maximized="1"
     inkscape:current-layer="layer2" />
  <defs
     id="defs2">
    <inkscape:path-effect
       effect="mirror_symmetry"
       start_point="683.16804,325.11052"
       end_point="683.75571,349.28418"
       center_point="683.46188,337.19735"
       id="path-effect30802"
       is_visible="true"
       lpeversion="1.1"
       mode="free"
       discard_orig_path="false"
       fuse_paths="true"
       oposite_fuse="false"
       split_items="false"
       split_open="false" />
    <inkscape:path-effect
       effect="mirror_symmetry"
       start_point="642.13751,229.68369"
       end_point="642.13751,293.42425"
       center_point="642.13751,261.55397"
       id="path-effect26495"
       is_visible="true"
       lpeversion="1.1"
       mode="free"
       discard_orig_path="false"
       fuse_paths="true"
       oposite_fuse="true"
       split_items="false"
       split_open="false" />
    <inkscape:path-effect
       effect="mirror_symmetry"
       start_point="642.13751,229.68369"
       end_point="642.13751,293.42425"
       center_point="642.13751,261.55397"
       id="path-effect25669"
       is_visible="true"
       lpeversion="1.1"
       mode="free"
       discard_orig_path="false"
       fuse_paths="true"
       oposite_fuse="true"
       split_items="false"
       split_open="false" />
    <inkscape:path-effect
       effect="mirror_symmetry"
       start_point="642.13751,229.68369"
       end_point="642.13751,293.42425"
       center_point="642.13751,261.55397"
       id="path-effect19313"
       is_visible="true"
       lpeversion="1.1"
       mode="free"
       discard_orig_path="false"
       fuse_paths="true"
       oposite_fuse="true"
       split_items="false"
       split_open="false" />
    <inkscape:path-effect
       effect="mirror_symmetry"
       start_point="642.08485,260.18129"
       end_point="670.47517,260.18129"
       center_point="656.28001,260.18129"
       id="path-effect19311"
       is_visible="true"
       lpeversion="1.1"
       mode="free"
       discard_orig_path="false"
       fuse_paths="false"
       oposite_fuse="false"
       split_items="false"
       split_open="false" />
  </defs>
  <g
     inkscape:groupmode="layer"
     id="layer2"
     inkscape:label="Layer 2"
     style="display:inline;opacity:1"
     transform="translate(-48.913401,-21.14971)">
    <g
       id="g48350"
       style="fill-opacity:0.992156">
      <path
         id="path1300"
         style="fill-opacity:0.992156;stroke:none;stroke-width:5.15906;stroke-linecap:butt;stroke-linejoin:miter;stroke-miterlimit:4;stroke-dasharray:none;stroke-opacity:1"
         d="m 546.18359,128.16016 c -28.08107,0.0831 -55.88462,6.76882 -83.66015,14.11718 -159.88168,129.5365 -316.89982,716.82979 -65.86914,1089.04296 -100.29843,20.8545 -208.69084,-22.1946 -166.5293,-155.3984 -100.4922,81.8959 -26.66385,324.9052 152.68359,337.3554 183.28154,12.7234 263.30814,-129.5019 173.53907,-258.5566 192.49166,52.591 365.33474,-15.9059 378.26367,-135.4414 C 943.64466,935.761 904.96754,859.74307 852.12109,800.34375 796.51801,737.84594 713.70111,716.75075 593.63867,718.83984 822.41839,698.80393 885.02422,532.51051 886.38281,410.75391 887.91379,273.54776 775.87149,142.61904 569.04102,146.48633 c 0.55286,-4.62663 0.80823,-9.08241 5.32617,-15.98828 -9.43131,-1.6593 -18.82324,-2.36558 -28.1836,-2.33789 z m -47.2207,189.2832 c 72.90113,-0.47984 119.63188,42.08617 142.33789,76.24023 52.67316,79.23028 24.26062,167.4233 -17.64648,189.69141 -43.47576,23.10164 -126.0936,26.08937 -178.27149,-14.97656 3.53103,-87.21249 15.76686,-172.04079 42.63477,-250.56641 3.71216,-0.23795 7.36001,-0.36507 10.94531,-0.38867 z m 24.95313,527.19336 c 97.08785,-0.1347 219.49917,37.31971 219.85742,119.84375 0.28422,65.49703 -69.38609,110.36973 -233.98047,63.08203 L 468.05469,849.51172 c 16.65102,-3.19952 35.71101,-4.84704 55.86133,-4.875 z"
         transform="scale(0.26458333)" />
      <path
         id="path8728"
         style="fill-opacity:0.992156;stroke:none;stroke-width:2.51339;stroke-linecap:butt;stroke-linejoin:miter;stroke-miterlimit:4;stroke-dasharray:none;stroke-opacity:1"
         d="m 1582.2637,79.939453 c -62.2823,0.530337 -114.9348,60.604207 -139.3418,131.353517 -16.4379,47.64887 17.2985,167.87367 107.9843,192.76953 -46.6565,-53.71786 -15.4981,-144.67137 23.6192,-160.08984 15.0961,122.28252 70.6957,291.93239 -40.6406,463.86718 -24.6711,38.09908 -79.4062,72.9572 -129.5664,66.08594 -45.5963,-43.66458 -148.706,-41.24363 -224.0059,-17.54883 -128.6947,40.49673 -196.47844,180.04558 -191.69141,251.26955 7.11723,105.8944 122.42941,175.8027 249.50591,167.375 80.0342,-5.3079 181.986,-65.6842 222.9941,-135.3301 44.3706,-75.3564 19.9619,-144.76723 -9.9238,-208.34179 82.9463,-9.03171 145.3459,-61.44835 174.5898,-120.51367 -12.963,157.11639 2.9167,320.54786 -133.9668,450.52926 20.1542,8.9412 112.8061,9.5748 153.1543,-2.5683 91.4766,-112.7006 97.6884,-256.52713 103.1699,-395.35549 l 132.6016,-43.68555 c 106.0786,94.24592 167.4262,299.62634 137.6641,440.01364 17.6634,12.2064 159.0334,19.6259 176.6992,2.7149 -24.3834,-193.31745 -107.55,-367.81208 -235.3008,-506.36721 218.7799,-129.85009 246.2197,-304.26056 309.0254,-469.14063 -60.7242,-61.9919 -143.2726,-79.30738 -257.7422,-56.50976 -4.7117,155.98948 -71.2972,435.22868 -264.3633,487.37304 -6.6516,-189.27609 -51.9677,-413.89915 -110.291,-523.269528 -18.5403,-10.260566 -36.7348,-14.779353 -54.1738,-14.630859 z M 1266.6113,822.93945 c 6.4907,0.0218 12.9036,0.63413 19.168,1.86719 61.776,12.15972 75.2684,66.19575 66.0352,139.42969 -9.4618,75.04607 -65.7862,123.23677 -142.1055,128.28517 -62.2521,4.1178 -102.6296,-58.3465 -89.7031,-133.9883 13.8293,-80.9252 83.862,-135.80452 146.6054,-135.59375 z"
         transform="scale(0.26458333)" />
      <path
         id="path16994"
         style="fill-opacity:0.992156;stroke:none;stroke-width:2.67468;stroke-miterlimit:4;stroke-dasharray:none;stroke-opacity:1;paint-order:stroke fill markers"
         d="m 2411.6777,735.21094 c -142.7433,-0.6107 -231.5027,92.73107 -230.1738,216.4375 1.4095,131.20916 104.1926,235.72976 262.1133,225.15236 162.5547,-10.8878 268.6398,-78.0298 231.7617,-241.97072 -28.2462,-125.56821 -110.1376,-192.83171 -249.7207,-199.26563 -4.7158,-0.21736 -9.3758,-0.33381 -13.9805,-0.35351 z m 47.877,84.81836 c 29.7108,0.66601 58.3747,22.40488 53.0234,52.03515 -6.093,33.73728 -43.1157,53.07985 -69.5176,62.09961 13.87,-34.35424 45.0744,-71.34421 0.5645,-112.37695 4.2798,-1.08159 8.6646,-1.65155 13.0508,-1.75586 0.9595,-0.0228 1.9205,-0.0234 2.8789,-0.002 z m -60.1856,1.75195 c 3.2945,0.0622 6.59,0.39399 9.8418,1.01563 -42.0276,43.57156 -8.7097,78.66842 7.1504,112.15039 -26.8851,-7.45645 -64.9785,-24.59596 -73.039,-57.91797 -7.3076,-30.20965 22.0604,-54.14951 52.7539,-55.22071 1.0962,-0.0382 2.1948,-0.0481 3.2929,-0.0273 z m 135.3946,41.33398 c 18.9786,23.41985 10.2846,60.05095 2.8086,77.20313 -13.6981,31.42753 -59.9006,35.3205 -80.5684,54.16016 -12.7324,11.60618 -11.1907,33.96158 -3.3008,44.07618 5.2915,6.7835 37.9805,-8.0225 46.3711,10.8555 2.8253,6.3564 -13.1703,0.6332 -26.3847,3.5937 -12.8799,2.8856 -22.7151,10.0481 -26.6231,15.8027 -6.0949,8.975 -4.5243,21.1369 -6.6641,30.4297 -0.9173,3.9838 -2.196,7.4453 -5.5742,9.8907 -3.5158,-2.2431 -4.9853,-5.6237 -6.1347,-9.5469 -2.681,-9.1515 -1.823,-21.3841 -8.4336,-29.9863 -4.2387,-5.5156 -14.487,-12.0894 -27.5137,-14.2149 -13.3653,-2.1807 -28.9907,4.4702 -26.543,-2.041 7.2695,-19.3374 40.7638,-6.4745 45.6485,-13.5567 7.2833,-10.5597 7.5198,-32.9649 -5.8711,-43.80464 -21.7367,-17.59563 -68.0962,-18.77529 -83.6133,-49.3457 -8.4687,-16.68438 -19.2859,-52.74224 -1.7129,-77.23438 2.0988,42.55132 19.9616,47.81067 39.8086,52.72852 49.9898,12.38691 62.8284,26.71243 70.4961,55.07812 5.9914,-28.76643 17.9766,-43.82087 67.1543,-59.11718 19.5246,-6.07295 37.0497,-12.3695 36.6504,-54.97071 z m 18.5742,41.0293 c 0.6332,0.0817 1.8311,0.74501 3.9004,2.01953 19.0135,11.70996 19.0419,57.52513 13.3476,75.11524 -10.7198,33.1154 -72.7415,11.76006 -93.625,24.2441 -4.5248,2.7049 -6.2203,7.6146 -3.25,9.8496 8.8992,6.6965 18.9911,-13.1694 24.8829,-4.164 3.8084,5.8209 -2.9727,16.4025 -16.8907,18.9043 -15.133,2.7203 -20.2548,-11.1942 -21.0429,-18.1055 -2.1526,-18.87521 58.7919,-35.30154 70.1855,-47.17772 36.1256,-37.65566 19.3029,-60.16716 22.2559,-60.6836 0.068,-0.0119 0.1458,-0.0136 0.2363,-0.002 z m -248.5899,7.28711 c 2.9781,0.34235 -12.4936,23.80233 25.7774,59.27539 12.0703,11.18774 73.8723,24.01339 72.8301,42.98247 -0.3817,6.9455 -4.6788,21.137 -19.9453,19.3085 -14.0407,-1.6815 -21.4313,-11.8485 -17.9707,-17.8828 5.3537,-9.3352 16.5946,9.9059 25.0859,2.6993 2.8342,-2.4054 0.8533,-7.2077 -3.8223,-9.6426 -21.5794,-11.23834 -82.2419,13.7151 -94.8847,-18.71487 -6.7156,-17.22599 -9.3744,-62.96303 8.9199,-75.76758 2.2756,-1.59265 3.4583,-2.32093 4.0097,-2.25781 z"
         transform="scale(0.26458333)" />
      <path
         id="path28924"
         style="fill-opacity:0.992156;stroke:none;stroke-width:3.26929;stroke-linecap:butt;stroke-linejoin:miter;stroke-miterlimit:4;stroke-dasharray:none;stroke-opacity:1"
         d="m 650.2793,1211.4707 c 15.23433,37.2928 16.65723,90.1696 0.18359,128.6934 H 2586.6816 c 106.0057,-35.6971 164.721,-100.6023 179.3164,-128.6934 z m 1805.0625,17.2969 h 25.9883 l 102.9433,72.9492 102.9395,-72.9492 h 25.9863 l -128.9258,91.3652 z m 45.8437,0 h 27.3438 l 55.7441,39.5019 55.7422,-39.5019 h 27.3418 l -83.084,58.8789 z"
         transform="scale(0.26458333)" />
      <path
         style="fill-opacity:0.992156;stroke:none;stroke-width:0.865;stroke-linecap:butt;stroke-linejoin:miter;stroke-miterlimit:4;stroke-dasharray:none;stroke-opacity:1"
         d="M 68.683785,277.69918 C 56.068842,218.66152 42.420598,135.82086 98.678631,44.296065 75.438226,78.465777 46.694232,135.48639 49.366331,197.54143 c 1.483176,34.44425 4.189301,57.71033 19.317454,80.15775 z"
         id="path31499"
         sodipodi:nodetypes="ccsc" />
      <path
         style="fill-opacity:0.992156;stroke:none;stroke-width:0.765;stroke-linecap:butt;stroke-linejoin:miter;stroke-miterlimit:4;stroke-dasharray:none;stroke-opacity:1"
         d="m 259.93686,216.1644 c 2.70391,-12.60443 22.64182,-29.77408 41.35543,-35.23891 21.67336,-6.32916 48.89721,-6.85057 72.00844,4.35133 -38.22838,-10.76331 -89.12675,-2.03934 -113.36387,30.88758 z"
         id="path33247"
         sodipodi:nodetypes="cscc" />
      <path
         style="fill-opacity:0.992156;stroke:none;stroke-width:0.665;stroke-linecap:butt;stroke-linejoin:miter;stroke-miterlimit:4;stroke-dasharray:none;stroke-opacity:1"
         d="m 612.69078,67.098878 c 0.85263,19.525324 -6.39963,42.064792 -18.46624,61.005102 -9.09298,14.27277 -25.12612,36.22301 -43.42907,44.50537 30.19598,-25.34833 52.50153,-65.69678 61.89531,-105.510472 z"
         id="path34215"
         sodipodi:nodetypes="cscc" />
      <path
         id="path35531"
         style="fill-opacity:0.992156;stroke:none;stroke-width:2.51339;stroke-linecap:butt;stroke-linejoin:miter;stroke-miterlimit:4;stroke-dasharray:none;stroke-opacity:1"
         d="m 3074.7734,509.49219 c -19.0904,48.07949 -45.2732,95.35819 -68.7851,135.34375 l 11.2539,-8.82422 c 31.9413,-40.97413 53.5485,-84.95307 57.5312,-126.51953 z m -322.2656,281.98047 c -20.3745,4.47646 -40.9512,7.57073 -61.5371,9.27539 20.688,5.52064 43.9609,5.79876 68.5547,1.77343 -2.6191,-4.17765 -4.3712,-6.93492 -7.0176,-11.04882 z"
         transform="scale(0.26458333)"
         sodipodi:nodetypes="cccccccc" />
      <path
         id="path36825"
         style="fill-opacity:0.992156;stroke:none;stroke-width:0.999999px;stroke-linecap:butt;stroke-linejoin:miter;stroke-opacity:1"
         d="m 2680.6699,833.58594 c 14.6341,23.64359 67.4198,27.21045 131.5508,17.48047 -2.0401,-5.0058 -4.2843,-10.40751 -6.457,-15.27344 -45.2784,13.71204 -87.8626,15.69153 -125.0938,-2.20703 z"
         transform="scale(0.26458333)" />
      <path
         style="fill-opacity:0.992156;stroke:none;stroke-width:0.264583px;stroke-linecap:butt;stroke-linejoin:miter;stroke-opacity:1"
         d="m 768.16036,228.2607 c 17.60703,2.68963 45.96699,-18.54696 50.41638,-28.63839 -12.5313,12.03852 -32.59431,23.87873 -50.41638,28.63839 z"
         id="path37493"
         sodipodi:nodetypes="ccc" />
      <path
         id="path38409"
         style="fill-opacity:0.992156;stroke:none;stroke-width:0.999999px;stroke-linecap:butt;stroke-linejoin:miter;stroke-opacity:1"
         d="m 3024.6777,346.63477 c -11.5571,59.51886 -29.9114,131.16188 -52.4966,191.47886 39.4729,-42.89342 54.6823,-142.65428 52.4966,-191.47886 z"
         transform="scale(0.26458333)"
         sodipodi:nodetypes="ccc" />
      <path
         id="path38862"
         style="fill-opacity:0.992156;stroke:none;stroke-width:0.999999px;stroke-linecap:butt;stroke-linejoin:miter;stroke-opacity:1"
         d="m 2935.6992,392.41211 c 0.3058,24.21366 7.0646,53.15051 -30.2344,118.50781 21.4438,-5.49672 50.8047,-95.54956 30.2344,-118.50781 z"
         transform="scale(0.26458333)"
         sodipodi:nodetypes="ccc" />
      <path
         style="fill-opacity:0.992156;stroke:none;stroke-width:0.264583px;stroke-linecap:butt;stroke-linejoin:miter;stroke-opacity:1"
         d="m 742.24929,198.55414 c -1.94183,2.63679 -4.93627,4.68989 -8.82393,6.19073 l 0.96957,1.14004 c 3.96638,-1.77444 7.00042,-4.28685 9.8112,-5.54442 4.46479,2.63094 3.7728,6.75561 3.66348,10.34844 3.13371,-1.12173 3.4566,-3.74564 4.04173,-6.2294 10.76109,11.5817 26.18154,12.69411 26.96048,11.44038 0.77895,-1.25372 -0.59983,-9.83253 -10.17782,-18.71157 12.97533,3.40488 25.06786,-9.54002 25.14324,-10.77303 0.0754,-1.23301 -11.11622,-7.06424 -19.20017,-6.66369 12.2265,-21.89187 4.37341,-36.30695 2.4085,-36.96331 -1.96491,-0.65636 -14.48515,6.93128 -22.97123,22.53904 -1.96891,-5.3562 -10.28361,-14.51885 -12.9756,-14.39072 -2.69198,0.12814 -9.35436,12.29363 -7.23933,20.43285 -4.97248,-1.71858 -11.24834,-3.66913 -12.13694,-2.35032 -0.8886,1.3188 11.43466,18.80855 15.48506,21.91974 -2.52666,0.3034 -4.21382,0.85418 -4.70473,2.46429 4.18617,0.53834 7.9662,2.29551 9.74649,5.15095 z"
         id="path40676"
         sodipodi:nodetypes="cccccczczczczczccc" />
    </g>
  </g>
</svg>
