<?xml version="1.0" encoding="UTF-8" standalone="no"?>
<!-- Created with Inkscape (http://www.inkscape.org/) -->

<svg
   width="104.96241mm"
   height="104.96241mm"
   viewBox="0 0 104.96241 104.96241"
   version="1.1"
   id="svg5"
   inkscape:version="1.1.1 (3bf5ae0d25, 2021-09-20)"
   sodipodi:docname="icon site.svg"
   xmlns:inkscape="http://www.inkscape.org/namespaces/inkscape"
   xmlns:sodipodi="http://sodipodi.sourceforge.net/DTD/sodipodi-0.dtd"
   xmlns="http://www.w3.org/2000/svg"
   xmlns:svg="http://www.w3.org/2000/svg">
  <sodipodi:namedview
     id="namedview7"
     pagecolor="#ffffff"
     bordercolor="#666666"
     borderopacity="1.0"
     inkscape:pageshadow="2"
     inkscape:pageopacity="0.0"
     inkscape:pagecheckerboard="0"
     inkscape:document-units="mm"
     showgrid="false"
     inkscape:zoom="0.9700586"
     inkscape:cx="141.22858"
     inkscape:cy="71.645156"
     inkscape:window-width="2560"
     inkscape:window-height="1415"
     inkscape:window-x="1920"
     inkscape:window-y="0"
     inkscape:window-maximized="1"
     inkscape:current-layer="layer2" />
  <defs
     id="defs2">
    <inkscape:path-effect
       effect="mirror_symmetry"
       start_point="683.16804,325.11052"
       end_point="683.75571,349.28418"
       center_point="683.46188,337.19735"
       id="path-effect30802"
       is_visible="true"
       lpeversion="1.1"
       mode="free"
       discard_orig_path="false"
       fuse_paths="true"
       oposite_fuse="false"
       split_items="false"
       split_open="false" />
    <inkscape:path-effect
       effect="mirror_symmetry"
       start_point="642.13751,229.68369"
       end_point="642.13751,293.42425"
       center_point="642.13751,261.55397"
       id="path-effect26495"
       is_visible="true"
       lpeversion="1.1"
       mode="free"
       discard_orig_path="false"
       fuse_paths="true"
       oposite_fuse="true"
       split_items="false"
       split_open="false" />
    <inkscape:path-effect
       effect="mirror_symmetry"
       start_point="642.13751,229.68369"
       end_point="642.13751,293.42425"
       center_point="642.13751,261.55397"
       id="path-effect25669"
       is_visible="true"
       lpeversion="1.1"
       mode="free"
       discard_orig_path="false"
       fuse_paths="true"
       oposite_fuse="true"
       split_items="false"
       split_open="false" />
    <inkscape:path-effect
       effect="mirror_symmetry"
       start_point="642.13751,229.68369"
       end_point="642.13751,293.42425"
       center_point="642.13751,261.55397"
       id="path-effect19313"
       is_visible="true"
       lpeversion="1.1"
       mode="free"
       discard_orig_path="false"
       fuse_paths="true"
       oposite_fuse="true"
       split_items="false"
       split_open="false" />
    <inkscape:path-effect
       effect="mirror_symmetry"
       start_point="642.08485,260.18129"
       end_point="670.47517,260.18129"
       center_point="656.28001,260.18129"
       id="path-effect19311"
       is_visible="true"
       lpeversion="1.1"
       mode="free"
       discard_orig_path="false"
       fuse_paths="false"
       oposite_fuse="false"
       split_items="false"
       split_open="false" />
  </defs>
  <g
     inkscape:groupmode="layer"
     id="layer2"
     inkscape:label="Layer 2"
     style="display:inline;opacity:1"
     transform="translate(-704.82275,-121.90856)">
    <g
       id="g48469">
      <path
         id="path35531"
         style="fill-opacity:0.990987;stroke:none;stroke-width:0.665001;stroke-linecap:butt;stroke-linejoin:miter;stroke-miterlimit:4;stroke-dasharray:none;stroke-opacity:1"
         d="m 728.98458,207.80073 c -5.39075,1.18439 -10.835,2.00308 -16.28169,2.45411 5.4737,1.46067 11.63132,1.53425 18.13843,0.46922 -0.69297,-1.10534 -1.15655,-1.83487 -1.85674,-2.92333 z"
         sodipodi:nodetypes="cccc" />
      <path
         id="path36825"
         style="fill-opacity:0.990987;stroke:none;stroke-width:0.264583px;stroke-linecap:butt;stroke-linejoin:miter;stroke-opacity:1"
         d="m 709.97747,218.9432 c 3.87194,6.2557 17.83815,7.19943 34.80615,4.62504 -0.53978,-1.32445 -1.13356,-2.75366 -1.70842,-4.0411 -11.97991,3.62798 -23.24698,4.15172 -33.09773,-0.58394 z" />
      <path
         style="fill-opacity:0.990987;stroke:none;stroke-width:0.241418px;stroke-linecap:butt;stroke-linejoin:miter;stroke-opacity:1"
         d="m 766.79991,223.58675 c 14.65895,2.68963 38.27039,-18.54696 41.97479,-28.63839 -10.43309,12.03852 -27.1368,23.87873 -41.97479,28.63839 z"
         id="path37493"
         sodipodi:nodetypes="ccc" />
      <path
         style="fill-opacity:0.990987;stroke:none;stroke-width:0.326301px;stroke-linecap:butt;stroke-linejoin:miter;stroke-opacity:1"
         d="m 734.26706,191.80456 c -2.39479,3.25187 -6.08773,5.78388 -10.88225,7.63482 l 1.19574,1.40597 c 4.8916,-2.18836 8.63338,-5.28683 12.09981,-6.83774 5.50628,3.24465 4.65287,8.33146 4.51805,12.76238 3.8647,-1.3834 4.26291,-4.61937 4.98453,-7.68251 13.27128,14.28332 32.2888,15.65521 33.24944,14.10903 0.96065,-1.54617 -0.73975,-12.12612 -12.55196,-23.07634 16.00204,4.19912 30.91534,-11.76539 31.00831,-13.28601 0.093,-1.52063 -13.70926,-8.71209 -23.67892,-8.21811 15.07852,-26.9985 5.39358,-44.77612 2.97032,-45.58559 -2.42326,-0.80947 -17.86404,8.54811 -28.32964,27.79663 -2.42819,-6.60562 -12.68242,-17.9056 -16.00236,-17.74758 -3.31993,0.15803 -11.53642,15.16131 -8.92802,25.19914 -6.13239,-2.11947 -13.8722,-4.52502 -14.96808,-2.89857 -1.09588,1.62643 14.10198,23.19594 19.0972,27.03287 -3.11604,0.37417 -5.19676,1.05343 -5.80218,3.03912 5.16266,0.66392 9.82444,2.83097 12.02001,6.35249 z"
         id="path40676"
         sodipodi:nodetypes="cccccczczczczczccc" />
    </g>
  </g>
</svg>
