<?xml version="1.0" encoding="UTF-8" standalone="no"?>
<!-- Created with Inkscape (http://www.inkscape.org/) -->

<svg
   width="6.7779999mm"
   height="6.7779999mm"
   viewBox="0 0 6.7779999 6.7779999"
   version="1.1"
   id="svg5"
   inkscape:version="1.1.1 (3bf5ae0d25, 2021-09-20)"
   sodipodi:docname="logo.svg"
   xmlns:inkscape="http://www.inkscape.org/namespaces/inkscape"
   xmlns:sodipodi="http://sodipodi.sourceforge.net/DTD/sodipodi-0.dtd"
   xmlns="http://www.w3.org/2000/svg"
   xmlns:svg="http://www.w3.org/2000/svg">
  <sodipodi:namedview
     id="namedview7"
     pagecolor="#ffffff"
     bordercolor="#666666"
     borderopacity="1.0"
     inkscape:pageshadow="2"
     inkscape:pageopacity="0.0"
     inkscape:pagecheckerboard="0"
     inkscape:document-units="mm"
     showgrid="false"
     inkscape:lockguides="false"
     inkscape:zoom="10.342614"
     inkscape:cx="37.127945"
     inkscape:cy="10.393891"
     inkscape:window-width="1920"
     inkscape:window-height="1055"
     inkscape:window-x="2240"
     inkscape:window-y="1440"
     inkscape:window-maximized="1"
     inkscape:current-layer="layer1" />
  <defs
     id="defs2" />
  <g
     inkscape:label="Layer 1"
     inkscape:groupmode="layer"
     id="layer1"
     transform="translate(-67.25634,-144.14807)">
    <g
       id="g40138">
      <path
         style="fill:#6440fe;fill-opacity:1;stroke-width:30;paint-order:stroke fill markers"
         id="path991"
         d="m 68.397516,149.90119 c 0.303853,0.0197 0.611738,-0.0282 0.89548,-0.14084 0.114151,-0.0453 0.227356,-0.0958 0.331266,-0.1613 0.123333,-0.0777 0.23136,-0.17741 0.347038,-0.26611 0.105045,-0.11793 0.220014,-0.22771 0.315132,-0.35378 0.185658,-0.24607 0.376404,-0.59461 0.496594,-0.87801 0.213791,-0.5041 0.33437,-1.03677 0.459298,-1.56742 0.122248,-0.55603 0.22202,-1.11699 0.288472,-1.68245 0.01125,-0.10397 0.0227,-0.20814 0.0241,-0.3128 8.5e-5,0.0104 -1.6e-5,-0.04 -2.65e-4,-0.03 -0.01013,0.36946 0.24691,-0.0611 -1.000932,0.0376 -0.02487,0.002 -0.0024,0.0498 -0.0041,0.0747 -0.0033,0.0499 -0.0072,0.0998 -0.01085,0.14969 -0.02769,0.3519 -0.0756,0.7018 -0.126878,1.05091 -0.06185,0.37329 -0.03848,0.13287 0.983337,0.19281 0.02914,0.002 0.01212,-0.0571 0.01908,-0.0855 0.02167,-0.0883 0.05238,-0.20379 0.0818,-0.28827 0.01707,-0.049 0.03814,-0.0965 0.05721,-0.14477 0.07963,-0.15249 0.191175,-0.29124 0.365453,-0.33556 0.08163,-0.0208 0.160782,-0.0142 0.243832,-0.0135 0.02588,0.0121 0.05506,0.0187 0.07761,0.0363 0.07001,0.0544 0.095,0.21003 0.102643,0.28488 0.02627,0.25722 0.0105,0.23653 -0.02916,0.51334 -0.03274,0.10468 -0.05545,0.21303 -0.09822,0.31403 -0.07958,0.18792 -0.204166,0.37413 -0.346792,0.52034 -0.11398,0.11683 -0.270656,0.2236 -0.416304,0.29757 -0.05991,0.0304 -0.124441,0.0507 -0.18666,0.0761 -0.05312,0.0141 -0.105651,0.0306 -0.159364,0.0423 -0.06091,0.0132 -0.150135,0.0253 -0.215898,0.025 -0.0051,-2e-5 0.01286,-0.0101 0.01431,-0.005 0.09007,0.30012 0.222965,0.59297 0.255609,0.90461 0.006,0.0572 -0.101576,0.054 -0.152366,0.081 0.169926,0.0214 0.349065,0.0443 0.502963,0.12632 0.0555,0.0296 0.106124,0.0686 0.152582,0.11099 0.158242,0.1444 0.181769,0.21182 0.298257,0.3972 0.03218,0.0848 0.07566,0.16607 0.09655,0.2543 0.05036,0.21266 0.02832,0.47368 -0.110548,0.65113 -0.08752,0.11184 -0.148767,0.11424 -0.27328,0.1584 -0.05607,5.3e-4 -0.112662,0.009 -0.168206,0.002 -0.254286,-0.0351 -0.458499,-0.18903 -0.626505,-0.37449 -0.08013,-0.0885 -0.155252,-0.18212 -0.220995,-0.28174 -0.06713,-0.10171 -0.117542,-0.21351 -0.176311,-0.32026 -0.0455,-0.10708 -0.091,-0.21416 -0.136506,-0.32124 -0.282636,-0.64893 -1.20037,-0.24923 -0.917737,0.39971 v 0 c 0.06226,0.14035 0.124529,0.28071 0.186791,0.42106 0.227457,0.3832 0.297876,0.56108 0.627208,0.87417 0.135789,0.1291 0.282361,0.2501 0.444376,0.3442 0.299979,0.17424 0.652187,0.26897 1.000627,0.2431 0.166407,-0.0123 0.324237,-0.079 0.486355,-0.11856 0.135083,-0.0885 0.286673,-0.15584 0.405249,-0.26547 0.49277,-0.45556 0.591682,-1.18232 0.401952,-1.80041 -0.04584,-0.14934 -0.12727,-0.28532 -0.190905,-0.42798 -0.227227,-0.32024 -0.277188,-0.44384 -0.593566,-0.68229 -0.349787,-0.26362 -0.773287,-0.36644 -1.202288,-0.3908 -0.128246,0.0281 -0.363479,-0.0453 -0.384736,0.0842 -0.05151,0.31396 0.103106,0.63262 0.218475,0.92911 0.01752,0.045 0.09663,0.007 0.144928,0.005 0.23903,-0.009 0.472345,-0.0698 0.696796,-0.14896 0.288097,-0.13258 0.397229,-0.16348 0.65618,-0.36848 0.3888,-0.3078 0.677328,-0.70038 0.852027,-1.16574 0.05932,-0.15801 0.0879,-0.3259 0.13185,-0.48884 0.03122,-0.40229 0.08289,-0.57803 -0.03098,-0.96974 -0.125521,-0.43175 -0.391814,-0.76056 -0.824236,-0.90723 -0.112344,-0.0381 -0.234127,-0.0385 -0.351192,-0.0577 -0.277974,0.0243 -0.382751,0.0125 -0.64998,0.12658 -0.299493,0.12782 -0.536718,0.35207 -0.709232,0.62436 -0.0479,0.0756 -0.08322,0.1585 -0.124836,0.23774 -0.02712,0.0717 -0.05662,0.14261 -0.08135,0.21519 -0.03628,0.10648 -0.07414,0.25032 -0.100909,0.36148 -0.009,0.0375 -0.06128,0.10069 -0.02474,0.1129 0.316479,0.10569 0.649235,0.15891 0.979556,0.20598 0.0217,0.003 0.0071,-0.0433 0.01058,-0.0649 0.05481,-0.37364 0.105698,-0.74815 0.134934,-1.1248 0.0041,-0.0575 0.0087,-0.11494 0.01222,-0.17246 0.0024,-0.0386 0.04331,-0.10924 0.0052,-0.11587 -1.047033,-0.1822 -0.994961,-0.38648 -1.000705,-0.0191 -4e-5,0.002 -1.37e-4,-0.006 1.3e-5,-0.007 -2.64e-4,0.0695 -0.01169,0.13856 -0.01738,0.20766 -0.06163,0.52779 -0.155461,1.05122 -0.268806,1.57029 -0.164944,0.70562 -0.319913,1.41478 -0.740233,2.02131 -0.0557,0.0804 -0.12334,0.15177 -0.185009,0.22766 -0.05717,0.0508 -0.109141,0.10819 -0.171517,0.15248 -0.09415,0.0669 -0.245967,0.13295 -0.35906,0.16346 -0.05203,0.014 -0.105947,0.02 -0.159309,0.0276 -0.107997,0.0153 -0.07504,-0.0146 -0.104521,0.014 -0.699756,-0.10651 -0.850378,0.88309 -0.150624,0.9896 z" />
      <g
         id="g16767"
         style="fill:#262dbc;fill-opacity:1">
        <path
           style="fill:#262dbc;fill-opacity:1;stroke-width:30;paint-order:stroke fill markers"
           id="path993"
           d="m 70.115376,145.58335 c -0.107632,-0.1566 -0.179678,-0.32922 -0.233016,-0.51132 -0.02932,-0.10011 -0.04976,-0.20261 -0.07463,-0.30392 -0.08079,-0.32365 -0.538498,-0.20939 -0.457708,0.11426 v 0 c 0.02949,0.11648 0.05326,0.23456 0.08847,0.34944 0.06988,0.22801 0.164745,0.44385 0.302625,0.63873 0.203073,0.26465 0.577337,-0.0225 0.374261,-0.28719 z" />
        <path
           style="fill:#262dbc;fill-opacity:1;stroke-width:30;paint-order:stroke fill markers"
           id="path995"
           d="m 68.846837,147.75099 c 0.08288,-0.15729 0.13866,-0.1639 0.305302,-0.18206 0.159565,2.6e-4 0.07748,-0.003 0.246179,0.012 0.332473,0.0271 0.370861,-0.44305 0.03839,-0.47019 v 0 c -0.236892,-0.0178 -0.117772,-0.0151 -0.357376,-0.008 -0.145436,0.0262 -0.211021,0.0259 -0.343177,0.0987 -0.152707,0.0841 -0.257435,0.22221 -0.328663,0.37766 -0.121502,0.31067 0.317844,0.48249 0.439346,0.17183 z" />
      </g>
    </g>
  </g>
</svg>
